# xmcd
#
# Track frame offsets:
#	150
#	11721
#	23946
#	38791
#	52519
#	68201
#	80424
#	92687
#	105969
#	118663
#	130396
#	144149
#
# Disc length: 2105 seconds
#
# Revision: 1
# Processed by: cddbd v1.5.2PL0 Copyright (c) Steve Scherf et al.
# Submitted via: EZCDAudioConverter 7.0.0.1
#
DISCID=8e08370c
DTITLE=Various Artist - Crossroad Blues - Vol. 1: Birth Of The Blues
DYEAR=2000
DGENRE=Blues
TTITLE0=Cisneros Luis - Gema
TTITLE1=Gil Alfredo - Solo
TTITLE2=Martinez Gil Hermanos - Cancion sin nombre
TTITLE3=Fabregat Milina - Jacaranda
TTITLE4=Chopin Quezada - Divina Ilusion
TTITLE5=Velazquez Consuelo - Amar y vivir
TTITLE6=Baltodano Caudio - Embrujo
TTITLE7=Estrada Claudio - Contigo
TTITLE8=Carrasco Alfredo - Adios de carrasco
TTITLE9=De Jesus Benio - Sigamos pecando
TTITLE10=Cafuentes Carlos - Carta fatal
TTITLE11=Cisneros Cheque - Cerca del mar
EXTD=
EXTT0=
EXTT1=
EXTT2=
EXTT3=
EXTT4=
EXTT5=
EXTT6=
EXTT7=
EXTT8=
EXTT9=
EXTT10=
EXTT11=
PLAYORDER=
